<svg id="893bd7ca-3731-4068-b172-c07c82342923" data-name="Layer 1" xmlns="http://www.w3.org/2000/svg" viewBox="0 0 44 44"><defs><style>.\35 60a287f-8153-450c-a80f-baffcb4d30eb{fill:#fff;}</style></defs><title>error</title><path fill="#fff" fill-rule="evenodd" class="560a287f-8153-450c-a80f-baffcb4d30eb" d="M30.5723,1.7188a21.8984,21.8984,0,0,1,11.709,11.709A21.571,21.571,0,0,1,44,22a21.571,21.571,0,0,1-1.7187,8.5723,21.8984,21.8984,0,0,1-11.709,11.709A21.5664,21.5664,0,0,1,22,44a21.5611,21.5611,0,0,1-8.5723-1.7187,21.8984,21.8984,0,0,1-11.709-11.709A21.5581,21.5581,0,0,1,0,22a21.5581,21.5581,0,0,1,1.7188-8.5723,21.8984,21.8984,0,0,1,11.709-11.709A21.5611,21.5611,0,0,1,22,0,21.5664,21.5664,0,0,1,30.5723,1.7188ZM25.4375,22l8.25-8.25L30.25,10.3125,22,18.5625l-8.25-8.25L10.3125,13.75l8.25,8.25-8.25,8.25L13.75,33.6875l8.25-8.25,8.25,8.25L33.6875,30.25Z"/></svg>