<svg id="Layer_1" data-name="Layer 1" xmlns="http://www.w3.org/2000/svg" viewBox="0 0 496 182"><defs><style>.cls-1{fill:#f05a22;}</style></defs><path class="cls-1" d="M36.34,16.7V73.4a2.15,2.15,0,0,1-1.74,2.12c-7.23,1.37-34.46,5-34.46-18V17c0-22.32,36.2-22.82,36.2-.26"/><path class="cls-1" d="M85.88,55.79V112.5a2.14,2.14,0,0,1-1.75,2.11c-7.23,1.38-34.46,5-34.46-18V56.05c0-22.31,36.21-22.81,36.21-.26"/><path class="cls-1" d="M135.41,90.1v56.71a2.15,2.15,0,0,1-1.75,2.12c-7.23,1.37-34.46,5-34.46-18V90.36c0-22.31,36.21-22.81,36.21-.26"/><path d="M206.27,87.37l21.58,27.71H212.71L194.65,90.83v24.25H181.94V60.14h12.71V84.55l18.13-24.41h15.07Z"/><path d="M227.38,96.16c0-11.53,8-19.93,21-19.93s21,8.4,21,19.93-8,19.94-21,19.94S227.38,107.7,227.38,96.16Zm30.07,0c0-5.73-3.38-9.81-9-9.81s-9,4.08-9,9.81,3.3,9.82,9,9.82S257.45,101.89,257.45,96.16Z"/><path d="M276.28,77.25h12v5.49c2.2-4.24,6.52-6.51,12.25-6.51,9.18,0,13.81,5.18,13.81,15.46v23.39H302.26V95.61c0-6.35-1.8-9.26-6.67-9.26s-7.3,3.14-7.3,9v19.78h-12Z"/><path d="M347.24,105.5v9.58a47.22,47.22,0,0,1-8,.63c-5.66,0-13.43-1.26-13.43-13.89V86.75h-6v-9.5h6V66h12V77.25h8.56v9.5h-8.56V99.3c0,5.58,2.28,6.44,5.26,6.44A33.32,33.32,0,0,0,347.24,105.5Z"/><path d="M391,99.46H363.1c.23,5,3.53,7.61,8.87,7.61,3.69,0,6-1,7.06-3.37H390.8c-1.17,7.46-8.79,12.4-18.83,12.4-12.88,0-20.8-7.3-20.8-19.94,0-12.4,8.08-19.93,20.4-19.93,11.78,0,19.78,7.3,19.78,18A40.23,40.23,0,0,1,391,99.46ZM379.5,92c-.08-5-2.9-7.69-8-7.69s-8.32,3.06-8.4,7.69Z"/><path d="M398.26,77.25h12v5.49c2.2-4.24,6.52-6.51,12.24-6.51,9.19,0,13.82,5.18,13.82,15.46v23.39H424.24V95.61c0-6.35-1.8-9.26-6.67-9.26s-7.3,3.14-7.3,9v19.78h-12Z"/><path d="M469.22,105.5v9.58a47.26,47.26,0,0,1-8,.63c-5.65,0-13.42-1.26-13.42-13.89V86.75h-6v-9.5h6V66h12V77.25h8.56v9.5H459.8V99.3c0,5.58,2.28,6.44,5.26,6.44A33.44,33.44,0,0,0,469.22,105.5Z"/><path class="cls-1" d="M475.66,108.17a7.77,7.77,0,1,1,7.77,7.7A7.67,7.67,0,0,1,475.66,108.17Z"/><path d="M283.13,157.08c0,7.11-4.8,12.21-11.51,12.21a9.3,9.3,0,0,1-8.32-4.69v4.08H259V133.37h4.34v16.2a9.47,9.47,0,0,1,8.58-4.75C278.54,144.82,283.13,149.82,283.13,157.08Zm-4.39,0c0-4.84-3.23-8.32-7.72-8.32s-7.92,3.43-7.92,8.32,3.28,8.28,7.92,8.28S278.74,161.92,278.74,157.08Z"/><path d="M309.76,145.43v23.71c0,3.68-1.11,6.51-3.13,8.37A11.33,11.33,0,0,1,299,180c-3.33,0-6.05-.85-7.87-2.42a7.71,7.71,0,0,1-2.62-6h4.39c.2,2.83,1.72,4.74,6,4.74,3.94,0,6.46-2.22,6.46-7.51V164.5a8.5,8.5,0,0,1-8.07,4.74c-6.05,0-8.83-4-8.83-9.94V145.43h4.34v13c0,4.14,1.36,7,5.95,7s6.61-3.79,6.61-8V145.43Z"/><path d="M339.31,150.83l16.35,17.85h-5.9L335,152.29v16.39h-4.59V133.37H335v16.5l14.83-16.5h5.85Z"/><path d="M378.91,158.34h-18c.1,4.49,2.88,7.12,7.32,7.12,3.08,0,5.19-1.21,6.15-3.43h4.39c-.81,4.28-5.09,7.26-10.54,7.26-7.17,0-11.66-4.74-11.66-12.26,0-7.36,4.54-12.21,11.46-12.21,6.55,0,11,4.54,11,11A23.86,23.86,0,0,1,378.91,158.34ZM374.73,155c0-4.08-2.53-6.61-6.76-6.61S361.1,151,360.9,155Z"/><path d="M384.71,145.43h4.39v4.29c1.26-3,4.09-4.9,8.12-4.9,5.7,0,8.63,3.33,8.63,9.54v14.32h-4.34v-12.4c0-5.2-1.72-7.67-5.85-7.67-4.34,0-6.56,3.07-6.56,7.77v12.3h-4.39Z"/><path d="M425.17,164.75v3.88a19.15,19.15,0,0,1-3.94.36c-2.72,0-7.11-.51-7.11-8V149.11h-4.19v-3.68h4.19v-7.37h4.39v7.37h5.85v3.68h-5.85V160c0,4.44,1.51,5,3.73,5A17,17,0,0,0,425.17,164.75Z"/><path d="M429.05,137.91a3.56,3.56,0,1,1,7.11,0,3.56,3.56,0,0,1-7.11,0Zm1.41,7.52h4.34v23.25h-4.34Z"/><path d="M440.5,157.08c0-7.21,4.39-12.21,11.55-12.21,6.26,0,10.29,3.43,10.85,8.63h-4.39c-.6-3.08-2.82-4.69-6.51-4.69-4.44,0-7.16,3.08-7.16,8.27s2.72,8.28,7.16,8.28c3.69,0,5.91-1.62,6.51-4.54h4.39c-.56,5.09-4.59,8.47-10.85,8.47C444.89,169.29,440.5,164.3,440.5,157.08Z"/><path d="M467,157.08c0-6.81,4.54-12.26,12.11-12.26s12.11,5.45,12.11,12.26-4.59,12.21-12.11,12.21S467,163.84,467,157.08Zm19.83,0c0-4.69-2.83-8.32-7.72-8.32s-7.77,3.63-7.77,8.32,2.88,8.28,7.77,8.28S486.81,161.72,486.81,157.08Z"/></svg>
